<svg xmlns="http://www.w3.org/2000/svg" xmlns:xlink="http://www.w3.org/1999/xlink" width="80" zoomAndPan="magnify" viewBox="0 0 60 60" height="80" preserveAspectRatio="xMidYMid meet" version="1.0"><defs><clipPath id="4838c701f1"><path d="M 0.0195312 0 L 60 0 L 60 60 L 0.0195312 60 Z M 0.0195312 0 " clip-rule="nonzero"/></clipPath></defs><g clip-path="url(#4838c701f1)"><path fill="#1f4188" d="M 53.300781 59.992188 L 6.699219 59.992188 C 2.972656 59.992188 0.0195312 56.972656 0.0195312 53.28125 L 0.0195312 6.683594 C 0.0195312 3.027344 3.042969 0.0078125 6.699219 0.0078125 L 53.300781 0.0078125 C 56.992188 0.0078125 59.984375 3.027344 59.984375 6.683594 L 59.984375 53.246094 C 60.019531 56.972656 56.992188 59.992188 53.300781 59.992188 Z M 6.699219 2.113281 C 4.167969 2.113281 2.09375 4.152344 2.09375 6.683594 L 2.09375 53.246094 C 2.09375 55.777344 4.167969 57.851562 6.699219 57.851562 L 53.300781 57.851562 C 55.832031 57.851562 57.875 55.777344 57.875 53.246094 L 57.875 6.683594 C 57.875 4.152344 55.832031 2.113281 53.300781 2.113281 Z M 6.699219 2.113281 " fill-opacity="1" fill-rule="evenodd"/></g><path fill="#ffcf00" d="M 11.484375 19.476562 L 7.582031 19.476562 C 6.980469 19.476562 6.488281 18.984375 6.488281 18.421875 L 6.488281 10.582031 C 6.488281 10.019531 6.980469 9.53125 7.582031 9.53125 L 11.484375 9.53125 C 14.226562 9.53125 16.40625 11.707031 16.40625 14.449219 C 16.40625 17.296875 14.226562 19.476562 11.484375 19.476562 Z M 8.636719 17.367188 L 11.484375 17.367188 C 13.03125 17.367188 14.332031 16.101562 14.332031 14.554688 C 14.332031 12.972656 13.03125 11.707031 11.484375 11.707031 L 8.636719 11.707031 Z M 8.636719 17.367188 " fill-opacity="1" fill-rule="evenodd"/><path fill="#ffcf00" d="M 11.484375 27.277344 L 7.582031 27.277344 C 6.980469 27.277344 6.488281 26.785156 6.488281 26.222656 L 6.488281 18.421875 C 6.488281 17.824219 6.980469 17.332031 7.582031 17.332031 L 11.484375 17.332031 C 14.226562 17.332031 16.40625 19.511719 16.40625 22.25 C 16.40625 25.027344 14.226562 27.277344 11.484375 27.277344 Z M 8.636719 25.132812 L 11.484375 25.132812 C 13.03125 25.132812 14.332031 23.867188 14.332031 22.320312 C 14.332031 20.738281 13.03125 19.476562 11.484375 19.476562 L 8.636719 19.476562 Z M 8.636719 25.132812 " fill-opacity="1" fill-rule="evenodd"/><path fill="#ffcf00" d="M 27.207031 27.242188 L 19.398438 27.242188 C 18.800781 27.242188 18.308594 26.75 18.308594 26.152344 L 18.308594 10.652344 C 18.308594 10.054688 18.800781 9.566406 19.398438 9.566406 C 19.996094 9.566406 20.488281 10.054688 20.488281 10.652344 L 20.488281 25.132812 L 27.207031 25.132812 C 27.804688 25.132812 28.296875 25.625 28.296875 26.222656 C 28.296875 26.785156 27.804688 27.242188 27.207031 27.242188 Z M 27.207031 27.242188 " fill-opacity="1" fill-rule="evenodd"/><path fill="#ffcf00" d="M 35.082031 27.242188 L 33.5 27.242188 C 31.214844 27.242188 29.351562 25.378906 29.351562 23.09375 L 29.351562 13.78125 C 29.351562 11.460938 31.214844 9.636719 33.5 9.636719 L 35.082031 9.636719 C 37.371094 9.636719 39.234375 11.460938 39.234375 13.78125 L 39.234375 23.09375 C 39.234375 25.378906 37.371094 27.242188 35.082031 27.242188 Z M 33.5 11.671875 C 32.375 11.671875 31.460938 12.585938 31.460938 13.710938 L 31.460938 23.023438 C 31.460938 24.148438 32.375 25.097656 33.5 25.097656 L 35.082031 25.097656 C 36.207031 25.097656 37.125 24.148438 37.125 23.023438 L 37.125 13.78125 C 37.125 12.65625 36.207031 11.707031 35.082031 11.707031 L 33.5 11.707031 Z M 33.5 11.671875 " fill-opacity="1" fill-rule="evenodd"/><path fill="#ffcf00" d="M 47.78125 24.007812 C 47.289062 24.007812 46.757812 23.972656 46.265625 23.832031 C 44.507812 23.339844 42.996094 22.109375 42.117188 20.351562 C 40.394531 16.945312 41.414062 12.550781 44.4375 10.546875 C 45.914062 9.566406 47.640625 9.320312 49.222656 9.777344 C 50.980469 10.265625 52.492188 11.460938 53.371094 13.21875 C 53.617188 13.78125 53.441406 14.414062 52.914062 14.660156 C 52.351562 14.90625 51.71875 14.695312 51.472656 14.167969 C 50.839844 12.9375 49.890625 12.09375 48.695312 11.777344 C 47.640625 11.460938 46.546875 11.671875 45.632812 12.304688 C 43.488281 13.710938 42.75 16.875 44.015625 19.371094 C 44.648438 20.597656 45.632812 21.441406 46.792969 21.757812 C 47.886719 22.074219 48.941406 21.863281 49.890625 21.230469 C 50.347656 20.878906 50.980469 21.054688 51.332031 21.511719 C 51.683594 22.003906 51.542969 22.636719 51.050781 22.988281 C 50.03125 23.726562 48.90625 24.007812 47.78125 24.007812 Z M 47.78125 24.007812 " fill-opacity="1" fill-rule="evenodd"/><path fill="#ffcf00" d="M 50.453125 27.242188 C 49.890625 27.242188 49.398438 26.75 49.398438 26.152344 L 49.398438 19.195312 L 46.792969 19.195312 C 46.195312 19.195312 45.703125 18.703125 45.703125 18.105469 C 45.703125 17.542969 46.195312 17.050781 46.792969 17.050781 L 50.453125 17.050781 C 51.050781 17.050781 51.542969 17.542969 51.542969 18.105469 L 51.542969 26.222656 C 51.542969 26.785156 51.050781 27.242188 50.453125 27.242188 Z M 50.453125 27.242188 " fill-opacity="1" fill-rule="evenodd"/><path fill="#1f4188" d="M 50.3125 36.800781 L 8.25 36.800781 C 7.6875 36.800781 7.195312 36.308594 7.195312 35.710938 C 7.195312 35.148438 7.6875 34.65625 8.25 34.65625 L 50.3125 34.65625 C 50.910156 34.65625 51.402344 35.148438 51.402344 35.710938 C 51.402344 36.308594 50.910156 36.800781 50.3125 36.800781 Z M 50.3125 36.800781 " fill-opacity="1" fill-rule="evenodd"/><path fill="#1f4188" d="M 50.3125 43.582031 L 8.25 43.582031 C 7.6875 43.582031 7.195312 43.089844 7.195312 42.527344 C 7.195312 41.929688 7.6875 41.4375 8.25 41.4375 L 50.3125 41.4375 C 50.910156 41.4375 51.402344 41.929688 51.402344 42.527344 C 51.402344 43.089844 50.910156 43.582031 50.3125 43.582031 Z M 50.3125 43.582031 " fill-opacity="1" fill-rule="evenodd"/><path fill="#1f4188" d="M 50.3125 50.398438 L 8.25 50.398438 C 7.6875 50.398438 7.195312 49.945312 7.195312 49.347656 C 7.195312 48.75 7.6875 48.257812 8.25 48.257812 L 50.3125 48.257812 C 50.910156 48.257812 51.402344 48.75 51.402344 49.347656 C 51.402344 49.945312 50.910156 50.398438 50.3125 50.398438 Z M 50.3125 50.398438 " fill-opacity="1" fill-rule="evenodd"/></svg>